{"title":"Curse of Chucky (2013) BRRIP 720P Unrated Cut","uid":8956825,"size":2661925051,"categoryP":"video","categoryS":"hd___movies","magnet":"?xt=urn:btih:f4aa8f7b55b1512bd5008827cd1883bbc47e433e&amp;dn=+Curse+of+Chucky+%282013%29+BRRIP+720P+Unrated+Cut&amp;tr=udp%3A%2F%2Ftracker.openbittorrent.com%3A80&amp;tr=udp%3A%2F%2Fopen.demonii.com%3A1337&amp;tr=udp%3A%2F%2Ftracker.coppersurfer.tk%3A6969&amp;tr=udp%3A%2F%2Fexodus.desync.com%3A6969","seeders":1,"leechers":0,"uploader":"jmanwf","files":4,"time":1380016316,"description":"Format                                   : MPEG-4\nFormat profile                           : Base Media\nCodec ID                                 : isom\nFile size                                : 2.46 GiB\nDuration                                 : 1h 36mn\nOverall bit rate mode                    : Variable\nOverall bit rate                         : 3 649 Kbps\nMovie name                               : Curse of Chucky (Unrated)\nPerformer                                : Don Mancini\nGenre                                    : Horror\nRecorded date                            : UTC 2013-09-24 07:00:00\nTagged date                              : UTC 2013-09-24 07:42:29\nCover                                    : Yes\n\n\n\nVideo\nID                                       : 1\nFormat                                   : AVC\nFormat/Info                              : Advanced Video Codec\nFormat profile                           : &lt;a class=&quot;__cf_email__&quot; href=&quot;/cdn-cgi/l/email-protection&quot; data-cfemail=&quot;aeeccfddcbc2c7c0cbeee29d809e&quot;&gt;[email&amp;#160;protected]&lt;/a&gt;&lt;script cf-hash='f9e31' type=&quot;text/javascript&quot;&gt;\n/* &lt;![CDATA[ */!function(){try{var t=&quot;currentScript&quot;in document?document.currentScript:function(){for(var t=document.getElementsByTagName(&quot;script&quot;),e=t.length;e--;)if(t[e].getAttribute(&quot;cf-hash&quot;))return t[e]}();if(t&amp;&amp;t.previousSibling){var e,r,n,i,c=t.previousSibling,a=c.getAttribute(&quot;data-cfemail&quot;);if(a){for(e=&quot;&quot;,r=parseInt(a.substr(0,2),16),n=2;a.length-n;n+=2)i=parseInt(a.substr(n,2),16)^r,e+=String.fromCharCode(i);e=document.createTextNode(e),c.parentNode.replaceChild(e,c)}}}catch(u){}}();/* ]]&gt; */&lt;/script&gt;\nFormat settings, CABAC                   : No\nFormat settings, ReFrames                : 3 frames\nCodec ID                                 : avc1\nCodec ID/Info                            : Advanced Video Coding\nDuration                                 : 1h 36mn\nBit rate                                 : 3 387 Kbps\nWidth                                    : 1 280 pixels\nHeight                                   : 718 pixels\nDisplay aspect ratio                     : 16:9\nFrame rate mode                          : Constant\nFrame rate                               : 23.976 fps\nColor space                              : YUV\nChroma subsampling                       : 4:2:0\nBit depth                                : 8 bits\nScan type                                : Progressive\nBits/(Pixel*Frame)                       : 0.154\nStream size                              : 2.29 GiB (93%)\nWriting library                          : x264 core 102\nE\n\nAudio #1\nID                                       : 2\nFormat                                   : AAC\nFormat/Info                              : Advanced Audio Codec\nFormat profile                           : LC\nCodec ID                                 : 40\nDuration                                 : 1h 36mn\nBit rate mode                            : Variable\nBit rate                                 : 128 Kbps\nMaximum bit rate                         : 199 Kbps\nChannel(s)                               : 2 channels\nChannel positions                        : Front: L R\nSampling rate                            : 48.0 KHz\nCompression mode                         : Lossy\nStream size                              : 88.5 MiB (4%)\nLanguage                                 : English\n\nStoryline\n\nAfter the events of Seed of Chucky, Nica, a young woman forced to a wheelchair since birth, has to regroup her sister, Barb and her brother-in-law, Ian for a funeral after the death of her mother. While dealing with Barb, Ian, along with their 5-year-old daughter, Alice; Nica receives an odd package - a creepy doll. After people start showing up dead, the fearless Nica soon suspects that the creepy doll is much more than just a doll. \n\n\n\nRuntime 1 Hour 36 Minutes 41 Seconds\n\n\n &lt;a href=&quot;\nhttp://www.imdb.com/title/tt2230358/&quot; rel=&quot;nofollow&quot; target=&quot;_NEW&quot;&gt;\nhttp://www.imdb.com/title/tt2230358/&lt;/a&gt;","torrent":{"xt":"urn:btih:f4aa8f7b55b1512bd5008827cd1883bbc47e433e","amp;dn":"+Curse+of+Chucky+%282013%29+BRRIP+720P+Unrated+Cut","amp;tr":["udp%3A%2F%2Ftracker.openbittorrent.com%3A80","udp%3A%2F%2Fopen.demonii.com%3A1337","udp%3A%2F%2Ftracker.coppersurfer.tk%3A6969","udp%3A%2F%2Fexodus.desync.com%3A6969"],"infoHash":"f4aa8f7b55b1512bd5008827cd1883bbc47e433e","infoHashBuffer":{"type":"Buffer","data":[244,170,143,123,85,177,81,43,213,0,136,39,205,24,131,187,196,126,67,62]},"announce":[],"urlList":[]}}